<svg width="25" height="27" viewBox="0 0 25 27" fill="none" xmlns="http://www.w3.org/2000/svg">
<g clip-path="url(#clip0_6512_1148)">
<path d="M14.5 8.94598V3.49515C15.2608 3.78348 15.9608 4.22765 16.5542 4.82015L19.4575 7.72515C20.0508 8.31765 20.495 9.01765 20.7833 9.77848H15.3333C14.8733 9.77848 14.5 9.40515 14.5 8.94598ZM21.1467 11.446H15.3333C13.955 11.446 12.8333 10.3243 12.8333 8.94598V3.13182C12.6992 3.12265 12.565 3.11182 12.4292 3.11182H8.66667C6.36917 3.11265 4.5 4.98182 4.5 7.27932V18.946C4.5 21.2435 6.36917 23.1127 8.66667 23.1127H17C19.2975 23.1127 21.1667 21.2435 21.1667 18.946V11.8502C21.1667 11.7143 21.1558 11.5802 21.1467 11.446ZM15.9225 18.5343L14.5783 19.8793C14.0975 20.3602 13.465 20.601 12.8333 20.601C12.2017 20.601 11.5692 20.3602 11.0883 19.8793L9.74417 18.5343C9.41833 18.2085 9.41833 17.681 9.74417 17.356C10.07 17.0302 10.5967 17.0302 10.9225 17.356L12 18.4335V14.7685C12 14.3085 12.3725 13.9352 12.8333 13.9352C13.2942 13.9352 13.6667 14.3085 13.6667 14.7685V18.4335L14.7442 17.356C15.07 17.0302 15.5967 17.0302 15.9225 17.356C16.2483 17.681 16.2483 18.2085 15.9225 18.5343Z" fill="#29E9CC"/>
</g>
<defs>
<clipPath id="clip0_6512_1148">
<rect width="20" height="20" fill="white" transform="translate(2.8335 3.1001)"/>
</clipPath>
</defs>
</svg>
