<svg width="22" height="29" viewBox="0 0 22 29" fill="none" xmlns="http://www.w3.org/2000/svg">
<path d="M15.6125 28.5004H1.10902C1.10902 28.5004 1.08395 28.467 1.07142 28.4628C0.738434 28.3859 0.445745 28.1884 0.249811 27.9085C0.0538764 27.6285 -0.0314225 27.286 0.01039 26.9469V2.4539C0.01039 2.3662 0.01039 2.27432 0.01039 2.18662C0.0219435 1.93036 0.106809 1.68279 0.254897 1.47331C0.402985 1.26382 0.608076 1.10123 0.845845 1.00479L1.08813 0.900391H20.4999C20.825 0.981882 21.1118 1.17312 21.312 1.44175C21.5122 1.71038 21.6134 2.03989 21.5986 2.37455C21.5986 8.99788 21.5986 15.6226 21.5986 22.2487C21.5986 22.5954 21.561 22.6329 21.2101 22.6329H17.5215C17.2827 22.6081 17.0413 22.6369 16.8149 22.717C16.5885 22.7972 16.3828 22.9267 16.2128 23.0963C16.0428 23.2659 15.9127 23.4712 15.832 23.6973C15.7512 23.9235 15.7219 24.1647 15.7462 24.4036C15.7462 25.6314 15.7462 26.8634 15.7462 28.0911C15.7242 28.2339 15.679 28.3721 15.6125 28.5004ZM4.96883 5.36049C4.00388 5.43984 3.48171 5.92843 3.43158 6.73443C3.36892 7.69076 3.64463 8.52182 4.98136 8.62622C4.98136 8.67634 4.98136 8.72645 4.98136 8.78074C4.98447 9.13433 5.12465 9.47293 5.37241 9.72529C5.62016 9.97764 5.95617 10.1241 6.30973 10.1338C6.5336 10.1505 6.7584 10.1505 6.98226 10.1338C7.27016 10.1035 7.54075 9.98163 7.75427 9.7862C7.9678 9.59078 8.11302 9.33205 8.16861 9.04802C8.19367 8.9102 8.20621 8.76822 8.22292 8.6304H8.33571C8.53213 8.63493 8.72728 8.59766 8.90821 8.52111C9.08915 8.44455 9.25175 8.33045 9.38524 8.18633C9.51874 8.04221 9.62008 7.87137 9.68255 7.68514C9.74503 7.49892 9.7672 7.30155 9.74762 7.10611C9.74762 6.97247 9.74762 6.83466 9.74762 6.68849C9.73052 6.37693 9.6072 6.08061 9.3982 5.84886C9.18919 5.61712 8.90709 5.46393 8.59887 5.41478C8.47773 5.41478 8.35242 5.41477 8.23128 5.38137C8.16444 4.17864 7.39582 3.7819 6.42251 3.83201C5.56617 3.85707 5.07744 4.34152 4.96883 5.36049ZM17.3336 8.14596L17.6928 7.82857C17.8056 7.72834 17.9226 7.6323 18.0312 7.52372C18.0784 7.4818 18.1162 7.43033 18.142 7.37275C18.1679 7.31516 18.1813 7.25277 18.1813 7.18964C18.1813 7.1265 18.1679 7.06408 18.142 7.0065C18.1162 6.94891 18.0784 6.89747 18.0312 6.85555C17.9884 6.81199 17.9374 6.77737 17.8811 6.75375C17.8248 6.73013 17.7643 6.71796 17.7032 6.71796C17.6422 6.71796 17.5817 6.73013 17.5254 6.75375C17.4691 6.77737 17.4181 6.81199 17.3753 6.85555C17.1163 7.07271 16.8699 7.30239 16.6151 7.52372L15.9216 6.914L15.7545 6.7762C15.8036 6.75564 15.85 6.72898 15.8924 6.69686C16.1028 6.52816 16.2551 6.29778 16.3279 6.03812C16.4006 5.77845 16.3902 5.50253 16.298 5.2491C16.2058 4.99568 16.0365 4.77748 15.8139 4.62518C15.5913 4.47288 15.3266 4.39414 15.0569 4.39999H13.8455C13.4696 4.39999 13.2983 4.56702 13.2941 4.9387V8.05828C13.2866 8.12336 13.2925 8.18927 13.3114 8.25199C13.3304 8.31471 13.3619 8.3729 13.4042 8.42297C13.4465 8.47304 13.4985 8.51392 13.5572 8.54313C13.6158 8.57234 13.6798 8.58925 13.7453 8.59281C14.0168 8.59281 14.209 8.38401 14.2131 8.0541C14.2173 7.72418 14.2131 7.35669 14.2131 6.95995C14.3969 6.99336 14.5849 6.95994 14.6893 7.05182C15.1071 7.39426 15.5248 7.76592 15.9425 8.1376C15.7044 8.3464 15.4788 8.55521 15.2616 8.73896C15.2122 8.77768 15.1713 8.82611 15.1414 8.88124C15.1114 8.93637 15.0931 8.99705 15.0875 9.05954C15.0819 9.12203 15.0892 9.18499 15.1089 9.24456C15.1286 9.30413 15.1603 9.35905 15.202 9.40591C15.2437 9.45277 15.2946 9.49057 15.3515 9.51701C15.4084 9.54346 15.4701 9.55798 15.5329 9.55966C15.5956 9.56134 15.658 9.55016 15.7163 9.5268C15.7745 9.50345 15.8273 9.46841 15.8715 9.42385C16.1347 9.20669 16.3811 8.97701 16.6401 8.7515C16.9116 8.98954 17.1539 9.21505 17.4088 9.42803C17.4537 9.47093 17.507 9.50425 17.5652 9.52599C17.6234 9.54772 17.6855 9.55742 17.7476 9.55448C17.8097 9.55155 17.8706 9.53607 17.9265 9.50893C17.9824 9.4818 18.0323 9.44361 18.073 9.39666C18.1138 9.34971 18.1445 9.29498 18.1635 9.23579C18.1825 9.1766 18.1892 9.11417 18.1834 9.0523C18.1775 8.99042 18.1591 8.93039 18.1294 8.87581C18.0996 8.82124 18.0591 8.77327 18.0103 8.73481C17.7931 8.54688 17.5758 8.35894 17.3336 8.14596ZM10.7878 17.4044H16.4187C16.5091 17.4107 16.5999 17.4107 16.6903 17.4044C16.7904 17.3977 16.8847 17.3552 16.9561 17.2846C17.0274 17.2141 17.0709 17.1202 17.0787 17.0202C17.0999 16.9181 17.0821 16.8117 17.0287 16.7221C16.9754 16.6324 16.8904 16.566 16.7905 16.5358C16.6795 16.5027 16.5637 16.4885 16.448 16.494H5.16933C5.06128 16.4889 4.95303 16.4987 4.84768 16.5233C4.75103 16.5561 4.66822 16.6205 4.61257 16.7061C4.55692 16.7916 4.53164 16.8934 4.5408 16.995C4.54996 17.0967 4.59302 17.1923 4.66307 17.2666C4.73311 17.3408 4.82609 17.3894 4.92705 17.4044C5.01606 17.4107 5.10539 17.4107 5.19439 17.4044H10.7878ZM10.8128 20.8539H16.1514C16.3227 20.8539 16.4939 20.8539 16.661 20.8539C16.7718 20.8539 16.8781 20.8099 16.9564 20.7316C17.0347 20.6533 17.0787 20.5471 17.0787 20.4363C17.0921 20.3232 17.0613 20.2094 16.9929 20.1184C16.9244 20.0274 16.8235 19.9662 16.7111 19.9477C16.614 19.9373 16.5159 19.9373 16.4187 19.9477H5.20692C5.07409 19.9409 4.94111 19.9578 4.81426 19.9978C4.71996 20.0319 4.64108 20.0987 4.592 20.1861C4.54291 20.2735 4.52691 20.3757 4.54692 20.4739C4.55567 20.5685 4.59645 20.6574 4.66253 20.7257C4.72861 20.794 4.81602 20.8378 4.91034 20.8497C5.00892 20.8602 5.10834 20.8602 5.20692 20.8497L10.8128 20.8539ZM9.37167 24.3034H12.4712C12.8889 24.3034 13.3317 24.3034 13.762 24.3034C13.8755 24.3046 13.9851 24.2618 14.0676 24.1839C14.1502 24.106 14.1994 23.9991 14.2048 23.8858C14.2113 23.7729 14.1756 23.6616 14.1046 23.5736C14.0335 23.4856 13.9322 23.4271 13.8205 23.4097C13.7219 23.3992 13.6225 23.3992 13.5239 23.4097H5.22364C5.12495 23.4013 5.02574 23.4013 4.92705 23.4097C4.85524 23.4202 4.78698 23.4477 4.72797 23.4899C4.66895 23.5322 4.62088 23.5879 4.58778 23.6525C4.55467 23.717 4.53748 23.7886 4.53764 23.8611C4.5378 23.9337 4.55531 24.0051 4.58869 24.0695C4.6362 24.1569 4.70924 24.2277 4.79807 24.2725C4.88689 24.3173 4.98727 24.3339 5.08579 24.3201L9.37167 24.3034ZM10.8254 13.9591H14.3301C14.4456 13.9654 14.5613 13.9654 14.6768 13.9591C14.7841 13.9497 14.8845 13.9022 14.9598 13.8252C15.0351 13.7482 15.0803 13.6469 15.0874 13.5394C15.0945 13.432 15.0628 13.3256 14.9983 13.2394C14.9337 13.1532 14.8404 13.093 14.7353 13.0696C14.6382 13.057 14.54 13.057 14.4429 13.0696H7.19113C7.06687 13.0638 6.94252 13.0793 6.82353 13.1156C6.73082 13.1504 6.65233 13.215 6.60036 13.2993C6.54839 13.3836 6.5259 13.4828 6.53642 13.5812C6.54693 13.6797 6.58986 13.7719 6.65847 13.8433C6.72707 13.9147 6.81745 13.9613 6.91543 13.9758C7.01412 13.9841 7.11333 13.9841 7.21202 13.9758L10.8254 13.9591Z" fill="#20ACE2"/>
</svg>
