<svg width="38" height="37" viewBox="0 0 38 37" fill="none" xmlns="http://www.w3.org/2000/svg">
<path d="M32.4509 35.6508H13.9074C11.5798 35.6508 9.69299 33.7639 9.69299 31.4363V5.30684C9.69299 2.97927 11.5799 1.0924 13.9074 1.0924H25.148L36.6654 12.6098V31.4363C36.6654 33.7639 34.7785 35.6508 32.4509 35.6508Z" fill="#EEF1F7" stroke="#CBD0DC" stroke-width="1.68578"/>
<rect y="16.2646" width="25.2866" height="14.7505" rx="2.95011" fill="#292D32"/>
<path d="M4.19092 27.222V20.1724H6.70372C7.25217 20.1724 7.70654 20.2722 8.06682 20.4718C8.42711 20.6715 8.69674 20.9446 8.87574 21.2911C9.05473 21.6353 9.14423 22.0231 9.14423 22.4545C9.14423 22.8883 9.05358 23.2784 8.8723 23.6249C8.6933 23.9691 8.42252 24.2422 8.05994 24.4441C7.69966 24.6438 7.24643 24.7436 6.70027 24.7436H4.9723V23.8417H6.60389C6.95041 23.8417 7.23152 23.7821 7.44723 23.6627C7.66294 23.5411 7.82128 23.3759 7.92225 23.1671C8.02322 22.9582 8.07371 22.7207 8.07371 22.4545C8.07371 22.1883 8.02322 21.952 7.92225 21.7454C7.82128 21.5389 7.66179 21.3771 7.44379 21.2601C7.22808 21.1431 6.94352 21.0845 6.59012 21.0845H5.25455V27.222H4.19092Z" fill="white"/>
<path d="M12.6733 27.222H10.3912V20.1724H12.7456C13.4364 20.1724 14.0296 20.3135 14.5252 20.5958C15.0209 20.8757 15.4007 21.2785 15.6646 21.804C15.9308 22.3272 16.0639 22.9548 16.0639 23.6868C16.0639 24.4212 15.9296 25.0522 15.6612 25.58C15.395 26.1078 15.0094 26.514 14.5046 26.7986C13.9997 27.0808 13.3893 27.222 12.6733 27.222ZM11.4548 26.2926H12.6148C13.1518 26.2926 13.5981 26.1916 13.9538 25.9897C14.3095 25.7854 14.5757 25.4905 14.7524 25.105C14.9291 24.7172 15.0175 24.2445 15.0175 23.6868C15.0175 23.1338 14.9291 22.6645 14.7524 22.279C14.578 21.8935 14.3176 21.6009 13.971 21.4012C13.6245 21.2016 13.1943 21.1018 12.6802 21.1018H11.4548V26.2926Z" fill="white"/>
<path d="M17.3866 27.222V20.1724H21.7581V21.088H18.4502V23.2359H21.4449V24.1481H18.4502V27.222H17.3866Z" fill="white"/>
</svg>
