<svg width="50" height="50" viewBox="0 0 50 50" fill="none" xmlns="http://www.w3.org/2000/svg">
<path d="M26.0209 48H1.84836C1.84836 48 1.80659 47.9443 1.7857 47.9374C1.23072 47.8092 0.742909 47.4801 0.416351 47.0135C0.089794 46.5469 -0.0523709 45.976 0.0173166 45.4108V4.58918C0.0173166 4.44301 0.0173166 4.28988 0.0173166 4.14371C0.0365725 3.71661 0.178016 3.30401 0.424829 2.95486C0.671642 2.60572 1.01346 2.33473 1.40974 2.17401L1.81356 2H34.1666C34.7083 2.13582 35.1864 2.45455 35.52 2.90227C35.8537 3.34999 36.0224 3.89917 35.9976 4.45693C35.9976 15.4958 35.9976 26.5371 35.9976 37.5806C35.9976 38.1583 35.9349 38.2209 35.3501 38.2209H29.2026C28.8044 38.1796 28.4021 38.2274 28.0248 38.361C27.6475 38.4946 27.3047 38.7106 27.0213 38.9932C26.7379 39.2758 26.5211 39.618 26.3866 39.9949C26.2521 40.3718 26.2032 40.7739 26.2437 41.172C26.2437 43.2183 26.2437 45.2716 26.2437 47.3179C26.207 47.5559 26.1317 47.7863 26.0209 48ZM8.28138 9.4335C6.67313 9.56574 5.80285 10.3801 5.7193 11.7234C5.61487 13.3173 6.07438 14.7024 8.30227 14.8764C8.30227 14.9599 8.30227 15.0434 8.30227 15.1339C8.30745 15.7232 8.54109 16.2876 8.95401 16.7082C9.36693 17.1288 9.92694 17.3728 10.5162 17.389C10.8893 17.4168 11.264 17.4168 11.6371 17.389C12.1169 17.3384 12.5679 17.1354 12.9238 16.8097C13.2797 16.484 13.5217 16.0528 13.6144 15.5794C13.6561 15.3497 13.677 15.113 13.7049 14.8834H13.8929C14.2202 14.8909 14.5455 14.8288 14.847 14.7012C15.1486 14.5736 15.4196 14.3834 15.6421 14.1432C15.8646 13.903 16.0335 13.6183 16.1376 13.3079C16.2417 12.9975 16.2787 12.6686 16.246 12.3429C16.246 12.1201 16.246 11.8904 16.246 11.6468C16.2175 11.1276 16.012 10.6337 15.6637 10.2474C15.3153 9.86121 14.8452 9.6059 14.3314 9.52398C14.1295 9.52398 13.9207 9.52397 13.7188 9.46829C13.6074 7.46375 12.3264 6.80252 10.7042 6.88604C9.27695 6.9278 8.4624 7.73521 8.28138 9.4335ZM28.8893 14.0759L29.488 13.547C29.676 13.3799 29.8709 13.2198 30.0519 13.0389C30.1306 12.969 30.1936 12.8832 30.2367 12.7873C30.2799 12.6913 30.3022 12.5873 30.3022 12.4821C30.3022 12.3769 30.2799 12.2728 30.2367 12.1768C30.1936 12.0809 30.1306 11.9951 30.0519 11.9253C29.9807 11.8527 29.8956 11.795 29.8018 11.7556C29.7079 11.7162 29.6072 11.6959 29.5054 11.6959C29.4036 11.6959 29.3029 11.7162 29.2091 11.7556C29.1152 11.795 29.0302 11.8527 28.9589 11.9253C28.5272 12.2872 28.1165 12.67 27.6918 13.0389L26.5361 12.0227L26.2576 11.793C26.3394 11.7587 26.4166 11.7143 26.4873 11.6608C26.8381 11.3796 27.0919 10.9957 27.2131 10.5629C27.3344 10.1301 27.317 9.67023 27.1633 9.24785C27.0097 8.82548 26.7276 8.46182 26.3566 8.20799C25.9856 7.95415 25.5444 7.82291 25.0949 7.83266H23.0759C22.4493 7.83266 22.1639 8.11105 22.1569 8.73051V13.9298C22.1444 14.0383 22.1542 14.1481 22.1857 14.2527C22.2173 14.3572 22.2699 14.4542 22.3403 14.5376C22.4108 14.6211 22.4975 14.6892 22.5953 14.7379C22.6931 14.7866 22.7997 14.8148 22.9088 14.8207C23.3613 14.8207 23.6816 14.4727 23.6886 13.9228C23.6955 13.373 23.6886 12.7605 23.6886 12.0993C23.9949 12.155 24.3082 12.0993 24.4822 12.2524C25.1785 12.8231 25.8747 13.4426 26.5709 14.062C26.174 14.41 25.7981 14.758 25.4361 15.0643C25.3537 15.1288 25.2855 15.2095 25.2356 15.3014C25.1857 15.3933 25.1552 15.4944 25.1458 15.5986C25.1365 15.7027 25.1487 15.8077 25.1815 15.907C25.2143 16.0062 25.2671 16.0978 25.3366 16.1759C25.4062 16.254 25.491 16.317 25.5858 16.361C25.6807 16.4051 25.7835 16.4293 25.8881 16.4321C25.9926 16.4349 26.0967 16.4163 26.1938 16.3774C26.2908 16.3384 26.3789 16.28 26.4525 16.2058C26.8911 15.8438 27.3019 15.461 27.7335 15.0852C28.1861 15.4819 28.5899 15.8578 29.0146 16.2127C29.0896 16.2842 29.1783 16.3398 29.2753 16.376C29.3724 16.4122 29.4758 16.4284 29.5793 16.4235C29.6828 16.4186 29.7843 16.3928 29.8775 16.3476C29.9707 16.3024 30.0538 16.2387 30.1217 16.1604C30.1896 16.0822 30.2409 15.991 30.2725 15.8923C30.3041 15.7937 30.3154 15.6896 30.3056 15.5865C30.2958 15.4834 30.2652 15.3833 30.2156 15.2924C30.166 15.2014 30.0985 15.1215 30.0171 15.0574C29.6551 14.7442 29.2931 14.4309 28.8893 14.0759ZM17.9796 29.5067H27.3646C27.5152 29.5172 27.6664 29.5172 27.8171 29.5067C27.984 29.4955 28.1412 29.4247 28.2601 29.3071C28.379 29.1895 28.4516 29.0331 28.4646 28.8664C28.4998 28.6961 28.4701 28.5189 28.3812 28.3695C28.2923 28.2201 28.1507 28.1093 27.9842 28.059C27.7992 28.0038 27.6062 27.9803 27.4133 27.9894H8.61555C8.43546 27.9808 8.25505 27.9972 8.07947 28.0381C7.91839 28.0929 7.78038 28.2002 7.68762 28.3428C7.59486 28.4854 7.55274 28.655 7.568 28.8244C7.58326 28.9938 7.65503 29.1532 7.77178 29.2769C7.88852 29.4007 8.04348 29.4816 8.21175 29.5067C8.3601 29.5172 8.50898 29.5172 8.65732 29.5067H17.9796ZM18.0214 35.2559H26.919C27.2044 35.2559 27.4899 35.2559 27.7684 35.2559C27.953 35.2559 28.1301 35.1826 28.2607 35.052C28.3912 34.9215 28.4646 34.7444 28.4646 34.5598C28.4868 34.3714 28.4356 34.1816 28.3215 34.03C28.2074 33.8783 28.0392 33.7764 27.8519 33.7455C27.6899 33.7282 27.5265 33.7282 27.3646 33.7455H8.67821C8.45682 33.7341 8.23518 33.7624 8.02376 33.829C7.8666 33.8858 7.73513 33.9972 7.65333 34.1429C7.57152 34.2886 7.54485 34.4588 7.5782 34.6225C7.59279 34.7802 7.66076 34.9283 7.77088 35.0422C7.88101 35.1561 8.02671 35.229 8.1839 35.2489C8.34821 35.2664 8.5139 35.2664 8.67821 35.2489L18.0214 35.2559ZM15.6194 41.005H20.7854C21.4816 41.005 22.2196 41.005 22.9366 41.005C23.1258 41.007 23.3085 40.9356 23.4461 40.8058C23.5837 40.676 23.6656 40.4979 23.6746 40.309C23.6855 40.1208 23.626 39.9353 23.5076 39.7887C23.3892 39.642 23.2204 39.5446 23.0341 39.5155C22.8698 39.498 22.7041 39.498 22.5398 39.5155H8.70606C8.54159 39.5015 8.37623 39.5015 8.21175 39.5155C8.09207 39.533 7.9783 39.5789 7.87994 39.6492C7.78159 39.7196 7.70147 39.8125 7.64629 39.9201C7.59111 40.0277 7.56247 40.1469 7.56273 40.2679C7.56299 40.3888 7.59218 40.5079 7.64782 40.6152C7.727 40.7609 7.84874 40.8789 7.99678 40.9535C8.14482 41.0281 8.31212 41.0558 8.47632 41.0328L15.6194 41.005ZM18.0423 23.7645H23.8835C24.076 23.7751 24.2689 23.7751 24.4614 23.7645C24.6402 23.7488 24.8074 23.6696 24.9329 23.5413C25.0584 23.4131 25.1339 23.2441 25.1457 23.0651C25.1574 22.886 25.1047 22.7086 24.9971 22.565C24.8895 22.4214 24.734 22.3211 24.5588 22.2821C24.397 22.2611 24.2333 22.2611 24.0715 22.2821H11.9852C11.7781 22.2723 11.5709 22.2982 11.3725 22.3586C11.218 22.4167 11.0872 22.5244 11.0006 22.6649C10.914 22.8054 10.8765 22.9707 10.894 23.1348C10.9116 23.2988 10.9831 23.4525 11.0974 23.5715C11.2118 23.6905 11.3624 23.7683 11.5257 23.7924C11.6902 23.8062 11.8556 23.8062 12.02 23.7924L18.0423 23.7645Z" fill="#3EBF8F"/>
<path d="M28.3478 44.4863C28.3478 43.5489 28.3478 42.6115 28.3478 41.674C28.3309 41.5006 28.3529 41.3256 28.4121 41.1616C28.4714 40.9975 28.5665 40.8485 28.6908 40.7249C28.815 40.6014 28.9652 40.5065 29.1308 40.447C29.2963 40.3874 29.4732 40.3647 29.6486 40.3805C31.5593 40.3805 33.47 40.3805 35.3807 40.3805C35.4839 40.3796 35.5858 40.4021 35.6788 40.4462C35.7718 40.4902 35.8533 40.5548 35.9172 40.6348C35.9302 40.7352 35.9198 40.8372 35.8866 40.9329C35.8535 41.0287 35.7986 41.1157 35.7261 41.1871C33.5411 43.3672 31.3511 45.5328 29.1562 47.6838C29.0836 47.755 28.9957 47.809 28.8989 47.8417C28.8022 47.8744 28.6992 47.885 28.5977 47.8727C28.5229 47.8041 28.4634 47.7209 28.4229 47.6283C28.3824 47.5357 28.3619 47.4358 28.3625 47.335C28.3331 46.4193 28.3478 45.4674 28.3478 44.4863Z" fill="#3EBF8F"/>
<path d="M14.5464 11.5671C14.5464 12.5699 14.3406 12.7734 13.3338 12.7734C11.9008 12.7734 11.8273 12.846 11.8273 14.2268C11.8273 14.6555 11.8787 15.186 11.3864 15.3095C10.8576 15.4146 10.313 15.4146 9.78431 15.3095C9.62263 15.3095 9.4683 14.8808 9.4095 14.6264C9.37631 14.3342 9.37631 14.0393 9.4095 13.7472C9.4095 13.0641 9.13025 12.7879 8.42475 12.7806H7.68986C6.99906 12.7806 6.71245 12.4827 6.69775 11.8141C6.69775 11.6615 6.69775 11.5017 6.69775 11.3491C6.69775 10.666 6.99906 10.3898 7.68986 10.3825C7.99117 10.3825 8.28512 10.3825 8.58643 10.3825C8.69719 10.3877 8.80782 10.37 8.91131 10.3306C9.0148 10.2912 9.1089 10.231 9.18766 10.1539C9.26641 10.0767 9.3281 9.98418 9.36882 9.88219C9.40954 9.7802 9.42838 9.67095 9.42419 9.56138C9.42419 9.21256 9.42419 8.87103 9.42419 8.52948C9.41915 8.4193 9.43701 8.30927 9.47667 8.20618C9.51633 8.1031 9.57696 8.00913 9.65479 7.93012C9.73262 7.85112 9.82599 7.78876 9.92916 7.74685C10.0323 7.70495 10.1431 7.68439 10.2546 7.68649C10.4236 7.68649 10.6 7.68649 10.7764 7.68649C11.5774 7.68649 11.8493 7.95539 11.8567 8.76203C11.8567 9.02364 11.8567 9.29249 11.8567 9.5541C11.8487 9.66777 11.8658 9.78181 11.9069 9.88827C11.948 9.99472 12.012 10.0911 12.0945 10.1706C12.177 10.2501 12.2761 10.3109 12.3848 10.3488C12.4934 10.3867 12.6092 10.4006 12.7239 10.3898H13.3412C14.3406 10.3753 14.5464 10.5715 14.5464 11.5671Z" fill="#3EBF8F"/>
<path d="M24.0264 9.99023V8.68922C24.5629 8.68922 25.0921 8.68922 25.6213 8.68922C25.7054 8.68871 25.7886 8.7058 25.8656 8.73939C25.9425 8.77298 26.0113 8.8223 26.0675 8.8841C26.1238 8.94589 26.1661 9.01876 26.1919 9.09792C26.2176 9.17707 26.226 9.26074 26.2167 9.34336C26.2208 9.42623 26.2075 9.50902 26.1777 9.58659C26.148 9.66417 26.1023 9.73486 26.0437 9.7942C25.9851 9.85355 25.9147 9.90027 25.837 9.9315C25.7592 9.96272 25.6758 9.97778 25.5919 9.97568C25.0848 10.0048 24.585 9.99023 24.0264 9.99023Z" fill="#3EBF8F"/>
</svg>
