<svg width="28" height="27" viewBox="0 0 28 27" fill="none" xmlns="http://www.w3.org/2000/svg">
<g clip-path="url(#clip0_6512_1154)">
<path d="M2.16634 8.44006C2.20714 8.29916 2.24254 8.15587 2.28933 8.01617C2.44477 7.5376 2.74978 7.12096 3.15987 6.82701C3.56996 6.53306 4.06369 6.37718 4.56906 6.38209C6.24525 6.37493 7.92084 6.38209 9.59704 6.38209H17.9156V19.8201H4.68184C3.3746 19.8201 2.47351 19.0899 2.19754 17.8153C2.18954 17.7951 2.17841 17.7764 2.16455 17.7597L2.16634 8.44006ZM11.7346 11.7136V11.4413C11.7346 10.7249 11.7382 10.0085 11.7346 9.29203C11.736 9.12218 11.6723 8.95819 11.5563 8.83358C11.4403 8.70896 11.2809 8.63312 11.1107 8.62156C10.9445 8.61195 10.7806 8.66327 10.65 8.76581C10.5193 8.86835 10.4309 9.01499 10.4015 9.17799C10.3899 9.26685 10.3861 9.35654 10.3901 9.44606C10.3901 11.8784 10.3901 14.3109 10.3901 16.7436C10.3901 16.8105 10.3901 16.8779 10.3901 16.9448C10.4017 17.0985 10.4648 17.2439 10.5694 17.3576C10.6739 17.4712 10.8139 17.5467 10.9667 17.5717C11.1162 17.591 11.268 17.5605 11.3982 17.4849C11.5285 17.4092 11.6299 17.2928 11.6866 17.1538C11.7088 17.1018 11.7298 17.0493 11.752 16.9943C13.3598 18.0439 15.1194 17.5585 16.0715 16.457C16.558 15.8914 16.834 15.1763 16.8527 14.4319C16.8715 13.6876 16.6321 12.9595 16.1746 12.3703C15.3293 11.2801 13.526 10.5756 11.7346 11.7148V11.7136ZM7.90285 16.8242C7.91124 16.8923 7.91485 16.9573 7.92744 17.02C7.95756 17.1828 8.04633 17.3291 8.1771 17.4315C8.30788 17.5338 8.47166 17.5851 8.63776 17.5759C8.80441 17.5655 8.96101 17.493 9.07633 17.3728C9.19164 17.2527 9.25718 17.0936 9.25988 16.9275C9.26588 15.1889 9.26588 13.4506 9.25988 11.7124C9.2591 11.5457 9.19507 11.3854 9.08061 11.2636C8.96614 11.1418 8.80969 11.0675 8.64256 11.0557C8.48432 11.044 8.32707 11.0886 8.19869 11.1814C8.07031 11.2742 7.9791 11.4092 7.94124 11.5625C7.92024 11.6396 7.91365 11.7208 7.89745 11.8187C7.23753 11.4264 6.53561 11.2658 5.78331 11.4007C5.04364 11.5258 4.38128 11.9308 3.93493 12.5309C3.53574 13.0554 3.32402 13.6975 3.33337 14.3553C3.34272 15.0132 3.5726 15.6491 3.98653 16.1621C4.68364 17.0487 6.21045 17.7759 7.90285 16.8254V16.8242Z" fill="#FFBE7D"/>
<path d="M21.9922 6.33472C22.5015 6.38666 23.0049 6.37711 23.474 6.4983C24.4579 6.75264 25.1538 7.6858 25.1574 8.70732C25.1678 11.6332 25.1678 14.5586 25.1574 17.4837C25.152 18.7542 24.1111 19.7775 22.8387 19.8121C22.5627 19.8193 22.2861 19.8121 21.9928 19.8121L21.9922 6.33472Z" fill="#FFBE7D"/>
<path d="M19.9581 3.77901C20.4188 3.34915 20.9371 3.11272 21.5503 3.10078C21.957 3.09243 22.2594 3.34975 22.2846 3.72767C22.308 4.08589 22.0404 4.3844 21.6486 4.43635C20.9131 4.53426 20.6288 4.85427 20.6288 5.58802V20.6124C20.6288 21.3443 20.9143 21.6661 21.6486 21.7628C22.0398 21.8148 22.3086 22.1139 22.284 22.4721C22.2588 22.8506 21.9564 23.1074 21.5491 23.0996C20.9365 23.0871 20.4182 22.85 19.9593 22.4226C19.9029 22.4697 19.8477 22.5169 19.7919 22.5629C19.3836 22.9093 18.8646 23.0998 18.328 23.1002C18.1537 23.1077 17.9832 23.0476 17.8524 22.9326C17.7216 22.8176 17.6407 22.6566 17.6267 22.4834C17.5949 22.1455 17.8463 21.8351 18.2063 21.773C18.3023 21.7563 18.4006 21.7581 18.496 21.7407C18.703 21.6984 18.8907 21.5906 19.0312 21.4336C19.1717 21.2765 19.2575 21.0786 19.2759 20.8691C19.2813 20.8022 19.2801 20.7347 19.2801 20.6679C19.2801 15.6226 19.2801 10.577 19.2801 5.53131C19.2801 5.14503 19.1733 4.81486 18.8386 4.61008C18.6843 4.52207 18.5133 4.46698 18.3364 4.44829C17.8931 4.39157 17.6027 4.11574 17.6225 3.73782C17.6441 3.33661 17.9591 3.08645 18.4156 3.10317C19.015 3.12645 19.5135 3.37064 19.9581 3.77901Z" fill="#FFBE7D"/>
<path d="M15.5094 14.3421C15.5123 14.8399 15.3168 15.3186 14.9657 15.6732C14.6147 16.0278 14.1367 16.2295 13.6365 16.2341C13.1363 16.2344 12.6563 16.0382 12.3009 15.6882C11.9454 15.3381 11.7432 14.8625 11.7383 14.3648C11.7368 13.8671 11.9332 13.3889 12.2844 13.0346C12.6357 12.6803 13.1135 12.4786 13.6137 12.4734C14.1139 12.4717 14.5944 12.6674 14.9498 13.0177C15.3051 13.368 15.5064 13.8443 15.5094 14.3421Z" fill="#FFBE7D"/>
<path d="M6.30242 15.9269C5.87469 15.9269 5.46431 15.7585 5.16085 15.4585C4.85738 15.1585 4.68547 14.7513 4.68262 14.3256C4.6823 14.1128 4.7241 13.9021 4.80564 13.7054C4.88717 13.5086 5.00684 13.3298 5.15781 13.1792C5.30878 13.0285 5.4881 12.9089 5.68552 12.8271C5.88294 12.7454 6.0946 12.7032 6.30842 12.7029C6.73633 12.7079 7.145 12.8806 7.44586 13.1834C7.74671 13.4863 7.9155 13.895 7.91563 14.3208C7.91547 14.7466 7.74547 15.1549 7.44299 15.4561C7.1405 15.7572 6.73028 15.9265 6.30242 15.9269Z" fill="#FFBE7D"/>
</g>
<defs>
<clipPath id="clip0_6512_1154">
<rect width="23" height="20" fill="white" transform="translate(2.1665 3.1001)"/>
</clipPath>
</defs>
</svg>
