<svg width="25" height="27" viewBox="0 0 25 27" fill="none" xmlns="http://www.w3.org/2000/svg">
<path d="M19.1667 3.1001C18.2826 3.1001 17.4348 3.45129 16.8096 4.07641C16.1845 4.70153 15.8333 5.54938 15.8333 6.43343C15.8348 6.66774 15.861 6.90123 15.9115 7.13005L8.3431 10.9142C8.03095 10.5549 7.64545 10.2665 7.21254 10.0686C6.77963 9.87065 6.30934 9.76774 5.83333 9.76676C4.94928 9.76676 4.10143 10.118 3.47631 10.7431C2.85119 11.3682 2.5 12.216 2.5 13.1001C2.5 13.9842 2.85119 14.832 3.47631 15.4571C4.10143 16.0822 4.94928 16.4334 5.83333 16.4334C6.30949 16.4329 6.78001 16.3303 7.21322 16.1327C7.64642 15.935 8.03225 15.6469 8.34473 15.2876L15.9082 19.0701C15.8588 19.2991 15.8337 19.5326 15.8333 19.7668C15.8333 20.6508 16.1845 21.4987 16.8096 22.1238C17.4348 22.7489 18.2826 23.1001 19.1667 23.1001C20.0507 23.1001 20.8986 22.7489 21.5237 22.1238C22.1488 21.4987 22.5 20.6508 22.5 19.7668C22.5 18.8827 22.1488 18.0349 21.5237 17.4097C20.8986 16.7846 20.0507 16.4334 19.1667 16.4334C18.6905 16.434 18.22 16.5365 17.7868 16.7342C17.3536 16.9318 16.9678 17.22 16.6553 17.5793L9.0918 13.7967C9.14116 13.5678 9.16625 13.3343 9.16667 13.1001C9.16507 12.8663 9.13888 12.6334 9.08854 12.4051L16.6569 8.62093C16.9692 8.98001 17.3548 9.26805 17.7877 9.4657C18.2206 9.66334 18.6908 9.766 19.1667 9.76676C20.0507 9.76676 20.8986 9.41558 21.5237 8.79045C22.1488 8.16533 22.5 7.31749 22.5 6.43343C22.5 5.54938 22.1488 4.70153 21.5237 4.07641C20.8986 3.45129 20.0507 3.1001 19.1667 3.1001Z" fill="#864FFD"/>
</svg>
