<svg width="24" height="27" viewBox="0 0 24 27" fill="none" xmlns="http://www.w3.org/2000/svg">
<g clip-path="url(#clip0_6516_1164)">
<path d="M19.4998 6.43342H16.9165C16.5178 4.49475 14.8124 3.1026 12.8331 3.1001H11.1665C9.18721 3.1026 7.48182 4.49475 7.08314 6.43342H4.49982C4.03959 6.43342 3.6665 6.8065 3.6665 7.26674C3.6665 7.72697 4.03959 8.1001 4.49982 8.1001H5.33314V18.9334C5.33592 21.2335 7.19979 23.0974 9.49982 23.1001H14.4998C16.7999 23.0974 18.6637 21.2335 18.6665 18.9334V8.1001H19.4998C19.9601 8.1001 20.3331 7.72701 20.3331 7.26678C20.3331 6.80654 19.9601 6.43342 19.4998 6.43342ZM11.1665 17.2668C11.1665 17.727 10.7934 18.1001 10.3332 18.1001C9.87291 18.1001 9.49982 17.727 9.49982 17.2668V12.2668C9.49982 11.8065 9.87291 11.4335 10.3331 11.4335C10.7934 11.4335 11.1665 11.8065 11.1665 12.2668V17.2668H11.1665ZM14.4998 17.2668C14.4998 17.727 14.1267 18.1001 13.6665 18.1001C13.2063 18.1001 12.8332 17.727 12.8332 17.2668V12.2668C12.8332 11.8065 13.2063 11.4335 13.6665 11.4335C14.1267 11.4335 14.4998 11.8065 14.4998 12.2668V17.2668ZM8.809 6.43342C9.16346 5.43533 10.1074 4.76803 11.1665 4.76674H12.8332C13.8923 4.76803 14.8362 5.43533 15.1907 6.43342H8.809Z" fill="#FB8CAB"/>
</g>
<defs>
<clipPath id="clip0_6516_1164">
<rect width="20" height="20" fill="white" transform="translate(2 3.1001)"/>
</clipPath>
</defs>
</svg>
