<svg width="21" height="20" viewBox="0 0 21 20" fill="none" xmlns="http://www.w3.org/2000/svg">
<path d="M17.8587 3.33332H15.2754C14.8767 1.39465 13.1713 0.0025 11.192 0H9.52535C7.54609 0.0025 5.8407 1.39465 5.44203 3.33332H2.85871C2.39848 3.33332 2.02539 3.70641 2.02539 4.16664C2.02539 4.62687 2.39848 5 2.85871 5H3.69203V15.8333C3.6948 18.1334 5.55867 19.9973 7.85871 20H12.8587C15.1588 19.9973 17.0226 18.1334 17.0254 15.8333V5H17.8587C18.3189 5 18.692 4.62691 18.692 4.16668C18.692 3.70645 18.3189 3.33332 17.8587 3.33332ZM9.52539 14.1667C9.52539 14.6269 9.1523 15 8.69207 15C8.2318 15 7.85871 14.6269 7.85871 14.1667V9.16668C7.85871 8.70645 8.2318 8.33336 8.69203 8.33336C9.15227 8.33336 9.52535 8.70645 9.52535 9.16668V14.1667H9.52539ZM12.8587 14.1667C12.8587 14.6269 12.4856 15 12.0254 15C11.5652 15 11.1921 14.6269 11.1921 14.1667V9.16668C11.1921 8.70645 11.5652 8.33336 12.0254 8.33336C12.4856 8.33336 12.8587 8.70645 12.8587 9.16668V14.1667ZM7.16789 3.33332C7.52234 2.33523 8.46625 1.66793 9.52539 1.66664H11.1921C12.2512 1.66793 13.1951 2.33523 13.5496 3.33332H7.16789Z" fill="#292D32"/>
</svg>
