<svg width="50" height="50" viewBox="0 0 50 50" fill="none" xmlns="http://www.w3.org/2000/svg">
<g clip-path="url(#clip0_6247_665)">
<path d="M26.8335 15.4454V2.90852C28.5834 3.57169 30.1934 4.59327 31.5581 5.95602L38.2357 12.6375C39.6004 14.0003 40.622 15.6103 41.2852 17.3602H28.7502C27.6922 17.3602 26.8335 16.5015 26.8335 15.4454ZM42.1208 21.1954H28.7502C25.58 21.1954 23.0002 18.6156 23.0002 15.4454V2.07286C22.6916 2.05177 22.383 2.02686 22.0706 2.02686H13.4168C8.13258 2.02877 3.8335 6.32786 3.8335 11.6121V38.4454C3.8335 43.7297 8.13258 48.0288 13.4168 48.0288H32.5835C37.8677 48.0288 42.1668 43.7297 42.1668 38.4454V22.125C42.1668 21.8126 42.1419 21.504 42.1208 21.1954ZM30.1052 34.3821C29.7315 34.7559 29.2408 34.9437 28.7502 34.9437C28.2595 34.9437 27.7688 34.7559 27.3951 34.3821L24.9168 31.9039V40.3334C24.9168 41.3914 24.0582 42.25 23.0002 42.25C21.9422 42.25 21.0835 41.3914 21.0835 40.3334V31.9039L18.6052 34.3821C17.8558 35.1315 16.6445 35.1315 15.8951 34.3821C15.1457 33.6327 15.1457 32.4214 15.8951 31.6719L18.9886 28.5784C21.2004 26.3666 24.7999 26.3666 27.0137 28.5784L30.1072 31.6719C30.8566 32.4214 30.8566 33.6327 30.1072 34.3821H30.1052Z" fill="#FF744F"/>
</g>
<defs>
<clipPath id="clip0_6247_665">
<rect width="46" height="46" fill="white" transform="translate(0 2)"/>
</clipPath>
</defs>
</svg>
