<svg width="181" height="186" viewBox="0 0 181 186" fill="none" xmlns="http://www.w3.org/2000/svg">
<path d="M117.526 119.093H63.0958C55.4969 119.093 49.3264 112.931 49.3264 105.343V13.7503C49.3264 6.16196 55.4969 0 63.0958 0H117.526C125.125 0 131.296 6.16196 131.296 13.7503V105.343C131.296 112.931 125.125 119.093 117.526 119.093ZM63.0768 9.31902C60.62 9.31902 58.6203 11.316 58.6203 13.7503V105.343C58.6203 107.796 60.62 109.774 63.0768 109.774H117.507C119.964 109.774 121.964 107.777 121.964 105.343V13.7503C121.964 11.2969 119.964 9.31902 117.507 9.31902H63.0768Z" fill="white"/>
<path d="M104.595 21.4337H76.0083C75.5703 21.4337 75.1894 21.0724 75.1894 20.6159C75.1894 20.1595 75.5512 19.7982 76.0083 19.7982H104.595C105.033 19.7982 105.414 20.1595 105.414 20.6159C105.414 21.0724 105.052 21.4337 104.595 21.4337Z" fill="white"/>
<path d="M90.292 103.004C92.3115 103.004 93.9486 101.369 93.9486 99.3522C93.9486 97.3355 92.3115 95.7006 90.292 95.7006C88.2725 95.7006 86.6354 97.3355 86.6354 99.3522C86.6354 101.369 88.2725 103.004 90.292 103.004Z" fill="white"/>
<path d="M117.526 186H63.0958C55.4969 186 49.3264 179.838 49.3264 172.25V141.212C49.3264 138.758 47.3266 136.761 44.8698 136.761H13.7695C6.17056 136.761 0 130.599 0 123.011V68.6564C0 61.0681 6.17056 54.9061 13.7695 54.9061H39.6134V64.2251H13.7695C11.3127 64.2251 9.31297 66.2221 9.31297 68.6564V123.011C9.31297 125.464 11.3127 127.442 13.7695 127.442H44.8508C52.4497 127.442 58.6203 133.604 58.6203 141.193V172.231C58.6203 174.684 60.62 176.662 63.0768 176.662H117.507C119.964 176.662 121.964 174.665 121.964 172.231V141.193C121.964 133.604 128.134 127.442 135.733 127.442H166.814C169.271 127.442 171.271 125.445 171.271 123.011V68.6564C171.271 66.2031 169.271 64.2251 166.814 64.2251H140.437V54.9061H166.814C174.413 54.9061 180.584 61.0681 180.584 68.6564V123.011C180.584 130.599 174.413 136.761 166.814 136.761H135.733C133.276 136.761 131.277 138.758 131.277 141.212V172.25C131.277 179.838 125.106 186 117.507 186H117.526Z" fill="white"/>
</svg>
