<svg width="24" height="24" viewBox="0 0 24 24" fill="none" xmlns="http://www.w3.org/2000/svg">
<path d="M1.51994 1.29868C2.43799 0.439404 3.65591 -0.0263366 4.91301 0.00115108H19.0906C19.7061 -0.0105566 20.3182 0.0941396 20.8948 0.30973C21.9954 0.727549 22.905 1.53358 23.4522 2.57585C23.8202 3.27936 24.0083 4.06306 23.9997 4.85697C23.9997 8.04489 23.9997 11.2325 23.9997 14.4197C23.9952 15.5126 23.6171 16.5712 22.9283 17.4197C22.4599 17.9966 21.8645 18.4574 21.1885 18.7661C20.5126 19.0749 19.7744 19.2231 19.0317 19.1994C16.4507 19.1994 13.8698 19.1994 11.2888 19.1994C9.84531 20.6509 8.40037 22.1002 6.954 23.5474C6.5683 24.0199 5.82798 24.157 5.32443 23.7927C5.16319 23.6821 5.03132 23.5338 4.94022 23.3608C4.84913 23.1877 4.80155 22.9951 4.80159 22.7995C4.80159 21.5995 4.80159 20.3984 4.80159 19.1983C3.68355 19.197 2.60101 18.8056 1.74065 18.0915C1.19897 17.6433 0.762431 17.0815 0.461943 16.4459C0.161456 15.8103 0.00436828 15.1163 0.00179235 14.4132C0.00179235 11.4132 0.00179235 8.41312 0.00179235 5.41305C0.00179235 4.96626 -0.0153553 4.51625 0.0564274 4.07374C0.218638 3.01055 0.734191 2.03298 1.51994 1.29868ZM6.34117 7.8206C5.93722 7.8808 5.56555 8.07604 5.28675 8.37451C5.00796 8.67297 4.83845 9.05707 4.80587 9.46421C4.77678 9.86628 4.883 10.2665 5.10763 10.6013C5.33225 10.936 5.66238 11.186 6.04547 11.3114C6.42846 11.4355 6.84196 11.4279 7.22015 11.2899C7.59834 11.1518 7.9195 10.8912 8.13252 10.5496C8.34235 10.2083 8.43295 9.80707 8.39009 9.40876C8.34724 9.01045 8.17336 8.63763 7.89575 8.34883C7.69764 8.1446 7.45395 7.99024 7.18465 7.89842C6.91535 7.8066 6.62812 7.77993 6.34652 7.8206H6.34117ZM11.7945 7.8131C11.3797 7.8623 10.9947 8.05367 10.705 8.35469C10.4154 8.6557 10.2389 9.04777 10.2057 9.46421C10.1772 9.86576 10.2835 10.2653 10.5079 10.5996C10.7323 10.9338 11.0618 11.1835 11.4442 11.3092C11.8207 11.4305 12.2266 11.4246 12.5994 11.2926C12.9722 11.1606 13.2914 10.9097 13.5077 10.5785C13.7214 10.247 13.8209 9.85474 13.7909 9.46146C13.7609 9.06817 13.6031 8.69549 13.3416 8.40026C13.1499 8.18671 12.91 8.02202 12.6419 7.91989C12.3737 7.81776 12.085 7.78115 11.7999 7.8131H11.7945ZM17.1921 7.8131C16.7961 7.86043 16.4269 8.03759 16.1422 8.31691C15.8574 8.59623 15.6732 8.96199 15.6183 9.35706C15.564 9.7538 15.6432 10.1573 15.8434 10.5041C16.0435 10.8509 16.3533 11.1213 16.7239 11.2728C17.0979 11.4228 17.5112 11.4435 17.8983 11.3317C18.2853 11.2199 18.6239 10.9819 18.8603 10.6557C19.0967 10.3239 19.2141 9.92202 19.1935 9.51516C19.1729 9.10831 19.0155 8.72034 18.7467 8.41419C18.5557 8.197 18.3152 8.02906 18.0455 7.92461C17.7758 7.82016 17.4849 7.78228 17.1975 7.81418L17.1921 7.8131Z" fill="white"/>
</svg>
