<svg width="24" height="24" viewBox="0 0 24 24" fill="none" xmlns="http://www.w3.org/2000/svg">
<g clip-path="url(#clip0_6196_176)">
<path d="M4.50022 4.5L12.0002 2L19.5002 4.5L12.0069 7.00083L4.50022 4.49083V4.5ZM3.66688 6.16667L2.25022 8.52833C1.69438 9.455 2.13938 10.6575 3.16438 10.9992L7.39855 12.4108C8.13938 12.6575 8.95272 12.3567 9.35438 11.6875L11.1669 8.6675L3.66688 6.16667ZM12.8336 8.66667L14.6461 11.6867C15.0477 12.3567 15.861 12.6575 16.6019 12.41L20.8669 10.9883C21.876 10.6517 22.3144 9.4675 21.7669 8.555L20.3335 6.16667L12.8336 8.66667ZM10.7836 12.545C10.1652 13.575 9.08022 14.1658 7.93772 14.1658C7.58355 14.1658 7.22438 14.11 6.87105 13.9917L3.66688 12.9242V19.5008L11.1669 22.0008V11.9058L10.7836 12.5442V12.545ZM17.1294 13.9917C16.7761 14.11 16.4169 14.1658 16.0627 14.1658C14.9202 14.1658 13.8352 13.5758 13.2169 12.545L12.8336 11.9067V22.0008L20.3335 19.5008V12.9242L17.1294 13.9917Z" fill="#223972"/>
</g>
<defs>
<clipPath id="clip0_6196_176">
<rect width="20" height="20" fill="white" transform="translate(2 2)"/>
</clipPath>
</defs>
</svg>
